<?xml version="1.0" encoding="UTF-8"?>
<svg id="Layer_1" data-name="Layer 1" xmlns="http://www.w3.org/2000/svg" viewBox="0 0 1192.01 432.14">
  <defs>
    <style>
      .cls-1 {
        fill: #fff;
      }

      .cls-2 {
        fill: #016bf2;
      }

      .cls-3 {
        fill: #51b948;
      }
    </style>
  </defs>
  <g>
    <g>
      <polygon class="cls-2" points="157.65 192.7 156.72 194.64 142.56 224.12 142.43 224.38 137.94 223.64 137.88 223.63 130.78 222.49 103.18 218.01 102.92 217.39 102.92 217.39 100.89 212.42 94.65 197.13 95.85 194.64 93.62 194.64 80.9 163.5 76.25 152.1 76.25 152.09 71.01 139.25 68.19 132.36 60.89 114.5 60.89 114.53 55.47 101.3 45.54 77.04 48.81 70.24 61.42 44.05 64.64 44.57 70.66 45.54 71 45.6 92.41 49.06 99.02 50.12 99.32 50.17 100.7 53.55 100.86 53.94 107.46 70.09 107.53 70.24 111.19 79.2 111.24 79.32 120.21 101.22 120.24 101.3 129.6 124.2 129.63 124.24 130.71 126.89 130.73 126.93 130.73 132.36 133.01 132.36 145.72 163.5 157.65 192.7"/>
      <polygon class="cls-2" points="120.43 187.74 95.27 198.68 85.89 175.49 111.05 164.55 120.43 187.74"/>
      <polygon class="cls-2" points="139.35 147.78 114.28 158.94 104.71 135.83 129.79 124.67 139.35 147.78"/>
    </g>
    <g>
      <polygon class="cls-2" points="167.83 217.43 166.91 219.36 152.74 248.85 152.62 249.1 148.12 248.36 148.06 248.36 140.97 247.21 113.36 242.74 113.11 242.12 113.11 242.11 111.07 237.15 104.83 221.86 106.03 219.36 103.8 219.36 91.09 188.23 86.43 176.83 86.43 176.82 81.19 163.98 78.37 157.09 71.07 139.22 71.07 139.26 65.65 126.02 55.72 101.76 58.99 94.96 71.61 68.77 74.82 69.29 80.85 70.27 81.18 70.32 102.59 73.78 109.2 74.85 109.5 74.9 110.88 78.28 111.04 78.67 117.65 94.81 117.71 94.96 121.38 103.93 121.42 104.05 130.39 125.95 130.42 126.02 139.79 148.93 139.81 148.97 140.89 151.62 140.91 151.66 140.91 157.09 143.19 157.09 155.91 188.23 167.83 217.43"/>
      <polygon class="cls-2" points="130.61 212.47 105.45 223.41 96.07 200.22 121.23 189.28 130.61 212.47"/>
      <polygon class="cls-2" points="149.53 172.51 124.46 183.66 114.9 160.56 139.97 149.4 149.53 172.51"/>
    </g>
  </g>
  <g>
    <g>
      <polygon class="cls-2" points="361.65 192.41 360.72 194.35 346.56 223.83 346.43 224.09 341.93 223.35 341.88 223.34 334.78 222.2 307.17 217.72 306.92 217.11 306.92 217.1 304.89 212.13 298.65 196.84 299.85 194.35 297.62 194.35 284.9 163.21 280.25 151.81 280.25 151.8 275 138.96 272.19 132.07 264.88 114.21 264.88 114.24 259.46 101.01 249.54 76.75 252.81 69.95 265.42 43.76 268.63 44.28 274.66 45.26 275 45.31 296.4 48.77 303.02 49.83 303.32 49.88 304.69 53.26 304.85 53.66 311.46 69.8 311.52 69.95 315.19 78.91 315.24 79.03 324.21 100.93 324.24 101.01 333.6 123.91 333.62 123.95 334.71 126.6 334.73 126.64 334.73 132.07 337.01 132.07 349.72 163.21 361.65 192.41"/>
      <polygon class="cls-2" points="324.43 187.45 299.27 198.39 289.89 175.2 315.05 164.26 324.43 187.45"/>
      <polygon class="cls-2" points="343.35 147.49 318.28 158.65 308.71 135.54 333.78 124.39 343.35 147.49"/>
    </g>
    <g>
      <polygon class="cls-2" points="371.83 217.14 370.9 219.07 356.74 248.56 356.61 248.81 352.12 248.07 352.06 248.07 344.96 246.92 317.36 242.45 317.1 241.83 317.1 241.83 315.07 236.86 308.83 221.57 310.03 219.07 307.8 219.07 295.08 187.94 290.43 176.54 290.43 176.53 285.19 163.69 282.37 156.8 275.07 138.93 275.07 138.97 269.65 125.73 259.72 101.47 262.99 94.68 275.6 68.48 278.82 69 284.84 69.98 285.18 70.03 306.59 73.49 313.2 74.56 313.5 74.61 314.88 77.99 315.04 78.38 321.64 94.52 321.71 94.68 325.37 103.64 325.42 103.76 334.39 125.66 334.42 125.73 343.78 148.64 343.8 148.68 344.89 151.33 344.91 151.37 344.91 156.8 347.19 156.8 359.9 187.94 371.83 217.14"/>
      <polygon class="cls-2" points="334.61 212.18 309.45 223.12 300.07 199.93 325.23 188.99 334.61 212.18"/>
      <polygon class="cls-2" points="353.53 172.22 328.46 183.38 318.89 160.27 343.96 149.11 353.53 172.22"/>
    </g>
  </g>
  <polygon class="cls-3" points="257.94 188.15 251.53 172.45 251.57 172.44 248.45 164.9 245.23 157.02 245.18 157.02 242.94 151.61 242.94 151.59 242.92 151.55 241.84 148.9 241.82 148.86 241.36 147.72 241.38 147.71 238.63 141.07 235.59 133.62 235.05 132.29 235.04 132.29 232.45 125.95 232.43 125.88 223.46 103.97 223.41 103.86 219.74 94.89 219.68 94.74 213.07 78.6 212.91 78.21 211.54 74.83 211.46 74.82 209.56 70.17 209.5 70.01 202.89 53.87 202.73 53.48 201.35 50.1 201.05 50.05 194.44 48.99 173.03 45.52 172.7 45.47 166.67 44.5 163.63 44 163.08 43.56 46.83 189.21 21.05 185.54 .42 212.26 13.65 243.8 47.51 248.63 68.15 221.91 58.5 198.91 150.37 83.8 157.5 101.22 162.92 114.46 162.92 114.43 170.22 132.29 173.04 139.18 178.28 152.02 178.28 152.03 182.94 163.43 195.65 194.56 195.67 194.56 197.3 198.61 197.31 198.61 202.92 212.35 204.96 217.32 204.96 217.32 205.21 217.94 205.29 217.95 205.84 219.29 205.85 219.29 207.49 223.34 207.49 223.33 213.11 237.08 215.14 242.04 215.14 242.05 215.39 242.67 243 247.14 250.1 248.29 250.15 248.29 254.65 249.03 254.77 248.78 268.94 219.29 269.87 217.36 257.94 188.15"/>
  <g>
    <path class="cls-2" d="M586.2,204.08h-127.62l-22.84,43.38h-60.31l109.95-203.8h74.01l110.26,203.8h-60.61l-22.84-43.38ZM565.79,165.07l-43.25-82.68-43.56,82.68h86.81Z"/>
    <path class="cls-2" d="M711.99,177.3c0,21.54,18.27,31.44,87.72,31.44,57.57,0,74.93-6.11,74.93-22.13,0-16.89-12.18-19.8-81.32-23-92.9-4.08-129.75-18.05-129.75-63.76s47.82-59.1,127.62-59.1,129.14,19.22,129.14,69.58h-54.82c0-22.42-23.45-27.95-80.41-27.95-53.91,0-66.7,4.95-66.7,20.09s12.79,18.63,74.93,22.13c84.06,4.37,136.15,8.73,136.15,60.27,0,54.44-53.91,65.51-132.8,65.51-87.41,0-139.5-14.27-139.5-73.08h54.83Z"/>
    <path class="cls-2" d="M1178.91,87.63l-162.04,115.87h162.04v43.96h-240.62v-43.96l161.73-115.87h-161.73v-43.96h240.62v43.96Z"/>
  </g>
  <g>
    <path class="cls-1" d="M0,384.89l32.44-73.02h16.69l32.75,73.02h-17.73l-26.81-64.46h6.78l-26.81,64.46H0ZM16.38,369.24l4.28-12.83h37.76l4.38,12.83H16.38Z"/>
    <path class="cls-1" d="M243.88,384.89v-73.02h55.18v13.56h-38.18v59.46h-17ZM259.52,358.29v-13.56h35.05v13.56h-35.05Z"/>
    <path class="cls-1" d="M464.91,384.89v-73.02h31.19c10.15,0,18.05,2.35,23.68,7.04,5.63,4.69,8.45,11.14,8.45,19.35,0,5.49-1.29,10.21-3.86,14.13-2.57,3.93-6.22,6.92-10.95,8.97-4.73,2.05-10.36,3.08-16.9,3.08h-22.32l7.72-7.3v27.75h-17ZM481.91,359.02l-7.72-8.03h21.38c5.15,0,9.04-1.11,11.68-3.34,2.64-2.22,3.96-5.35,3.96-9.39s-1.32-7.15-3.96-9.34c-2.64-2.19-6.54-3.29-11.68-3.29h-21.38l7.72-8.03v41.41ZM511.43,384.89l-18.36-26.5h18.15l18.36,26.5h-18.15Z"/>
    <path class="cls-1" d="M695.95,384.89v-73.02h17v73.02h-17Z"/>
    <path class="cls-1" d="M919.49,386.14c-5.63,0-10.87-.92-15.7-2.76-4.83-1.84-9.02-4.47-12.57-7.88-3.55-3.41-6.31-7.41-8.29-12-1.98-4.59-2.97-9.63-2.97-15.13s.99-10.54,2.97-15.12c1.98-4.59,4.76-8.59,8.34-12,3.58-3.41,7.79-6.03,12.62-7.88,4.83-1.84,10.07-2.76,15.7-2.76,6.33,0,12.06,1.1,17.21,3.29,5.15,2.19,9.46,5.41,12.93,9.65l-10.95,10.01c-2.44-2.85-5.2-5.01-8.29-6.47-3.09-1.46-6.45-2.19-10.07-2.19-3.41,0-6.54.57-9.39,1.72-2.85,1.15-5.32,2.76-7.41,4.85-2.09,2.09-3.7,4.56-4.85,7.41-1.15,2.85-1.72,6.02-1.72,9.49s.57,6.64,1.72,9.49c1.15,2.85,2.76,5.32,4.85,7.41,2.09,2.09,4.55,3.7,7.41,4.85,2.85,1.15,5.98,1.72,9.39,1.72,3.62,0,6.97-.75,10.07-2.24,3.09-1.5,5.86-3.67,8.29-6.52l10.95,10.01c-3.48,4.24-7.79,7.48-12.93,9.7-5.15,2.22-10.92,3.34-17.32,3.34Z"/>
    <path class="cls-1" d="M1103.39,384.89l32.44-73.02h16.69l32.75,73.02h-17.73l-26.81-64.46h6.78l-26.81,64.46h-17.32ZM1119.77,369.24l4.28-12.83h37.76l4.38,12.83h-46.42Z"/>
  </g>
</svg>