<?xml version="1.0" encoding="UTF-8"?><svg id="a" xmlns="http://www.w3.org/2000/svg" width="1394.88" height="513.93" viewBox="0 0 1394.88 513.93"><defs><style>.b{fill:#016bf2;}.c{fill:#51b948;}</style></defs><path d="M0,458.9l37.78-85.03h19.44l38.14,85.03h-20.65l-31.22-75.07h7.9l-31.22,75.07H0ZM19.07,440.68l4.98-14.94h43.97l5.1,14.94H19.07Z"/><path d="M284.01,458.9v-85.03h64.26v15.79h-44.46v69.24h-19.8ZM302.23,427.92v-15.79h40.82v15.79h-40.82Z"/><path d="M541.42,458.9v-85.03h36.32c11.82,0,21.02,2.73,27.58,8.2,6.56,5.47,9.84,12.98,9.84,22.53,0,6.4-1.5,11.89-4.49,16.46-3,4.58-7.25,8.06-12.76,10.45-5.51,2.39-12.07,3.58-19.68,3.58h-26l8.99-8.5v32.31h-19.8ZM561.22,428.77l-8.99-9.35h24.9c5.99,0,10.53-1.29,13.61-3.89,3.08-2.59,4.62-6.24,4.62-10.93s-1.54-8.32-4.62-10.87c-3.08-2.55-7.61-3.83-13.61-3.83h-24.9l8.99-9.35v48.23ZM595.6,458.9l-21.38-30.86h21.14l21.38,30.86h-21.14Z"/><path d="M810.49,458.9v-85.03h19.8v85.03h-19.8Z"/><path d="M1070.81,460.36c-6.56,0-12.65-1.07-18.28-3.22-5.63-2.14-10.51-5.2-14.64-9.17-4.13-3.97-7.35-8.62-9.66-13.97-2.31-5.35-3.46-11.22-3.46-17.61s1.15-12.27,3.46-17.61c2.31-5.34,5.55-10,9.72-13.97,4.17-3.97,9.07-7.02,14.7-9.17,5.63-2.14,11.72-3.22,18.28-3.22,7.37,0,14.05,1.28,20.04,3.83,5.99,2.55,11.01,6.3,15.06,11.24l-12.75,11.66c-2.83-3.32-6.05-5.83-9.66-7.53-3.6-1.7-7.51-2.55-11.72-2.55-3.97,0-7.61.67-10.93,2-3.32,1.34-6.2,3.22-8.62,5.65-2.43,2.43-4.31,5.31-5.65,8.62-1.34,3.32-2,7.01-2,11.05s.67,7.73,2,11.05c1.34,3.32,3.22,6.19,5.65,8.62s5.3,4.31,8.62,5.65c3.32,1.34,6.96,2,10.93,2,4.21,0,8.12-.87,11.72-2.61,3.6-1.74,6.82-4.27,9.66-7.59l12.75,11.66c-4.05,4.94-9.07,8.71-15.06,11.3-5.99,2.59-12.71,3.89-20.17,3.89Z"/><path d="M1284.97,458.9l37.78-85.03h19.44l38.14,85.03h-20.65l-31.22-75.07h7.9l-31.22,75.07h-20.17ZM1304.04,440.68l4.98-14.94h43.97l5.1,14.94h-54.06Z"/><polygon class="b" points="180.55 217.36 173.15 199.25 173.2 199.23 169.6 190.53 165.88 181.43 165.83 181.43 163.25 175.19 163.25 175.17 163.22 175.13 161.98 172.07 161.95 172.02 161.42 170.71 161.45 170.69 158.28 163.03 154.73 154.36 154.14 152.9 154.13 152.9 151.14 145.59 151.11 145.51 140.76 120.23 140.71 120.1 136.48 109.75 136.4 109.58 128.78 90.95 128.59 90.5 127.01 86.6 126.92 86.58 124.73 81.22 124.66 81.04 117.03 62.42 116.85 61.97 115.26 58.07 114.91 58.01 107.28 56.78 82.58 52.79 82.19 52.73 75.24 51.6 71.53 51 56.98 81.22 53.21 89.07 64.66 117.06 70.91 132.33 70.91 132.29 79.34 152.9 82.59 160.86 88.64 175.67 88.64 175.68 94.01 188.83 108.68 224.76 108.7 224.76 110.59 229.43 110.6 229.42 117.07 245.28 119.42 251.01 119.42 251.02 119.71 251.73 119.8 251.75 120.43 253.29 120.45 253.29 122.34 257.96 122.34 257.96 128.82 273.81 131.17 279.54 131.17 279.55 131.46 280.26 163.31 285.43 171.5 286.75 171.57 286.76 176.76 287.61 176.9 287.31 193.24 253.29 194.32 251.06 180.55 217.36"/><polygon class="b" points="415.94 217.03 408.54 198.91 408.58 198.89 404.98 190.2 401.27 181.1 401.22 181.1 398.64 174.86 398.64 174.83 398.61 174.79 397.36 171.73 397.34 171.68 396.8 170.38 396.84 170.36 393.67 162.7 390.09 153.97 389.52 152.57 389.52 152.57 386.53 145.25 386.5 145.17 376.15 119.9 376.09 119.76 371.86 109.42 371.79 109.24 364.17 90.62 363.98 90.17 362.39 86.26 362.31 86.25 360.12 80.89 360.04 80.71 352.42 62.09 352.23 61.64 350.65 57.73 350.3 57.67 342.67 56.45 317.97 52.45 317.58 52.39 310.63 51.27 306.92 50.66 292.36 80.89 288.59 88.73 300.04 116.72 306.3 132 306.3 131.96 314.73 152.57 317.98 160.52 324.03 175.34 324.03 175.35 329.39 188.5 344.07 224.43 344.09 224.43 345.97 229.09 345.98 229.09 352.46 244.95 354.8 250.68 354.8 250.69 355.09 251.4 355.19 251.41 355.82 252.96 355.83 252.96 357.72 257.63 357.73 257.62 364.21 273.48 366.55 279.21 366.55 279.22 366.84 279.93 398.7 285.09 406.89 286.41 406.95 286.42 412.14 287.27 412.29 286.98 428.63 252.96 429.7 250.73 415.94 217.03"/><polygon class="c" points="298.28 217.28 290.89 199.16 290.93 199.14 287.33 190.44 283.62 181.35 283.56 181.35 280.98 175.11 280.98 175.09 280.96 175.04 279.71 171.99 279.68 171.94 279.15 170.63 279.18 170.61 276.01 162.94 272.44 154.23 271.87 152.82 271.87 152.82 268.88 145.51 268.84 145.42 258.5 120.15 258.44 120.01 254.21 109.67 254.14 109.49 246.51 90.87 246.33 90.42 244.74 86.52 244.66 86.5 242.46 81.14 242.39 80.96 234.76 62.34 234.58 61.89 232.99 57.98 232.65 57.93 225.01 56.7 200.31 52.7 199.93 52.65 192.97 51.52 189.26 50.92 188.79 51.9 55.16 219.32 25.22 215.06 1.67 245.55 16.77 281.56 55.42 287.07 78.98 256.57 67.47 229.13 173.78 95.93 182.39 116.97 188.64 132.25 188.64 132.21 197.07 152.82 200.32 160.77 206.37 175.59 206.37 175.6 211.74 188.75 226.42 224.68 226.43 224.68 228.32 229.35 228.33 229.34 234.81 245.2 237.15 250.93 237.15 250.94 237.44 251.65 237.53 251.66 238.16 253.21 238.18 253.21 240.07 257.88 240.08 257.87 246.55 273.73 248.9 279.46 248.9 279.47 249.19 280.18 281.05 285.34 289.23 286.66 289.3 286.67 294.49 287.53 294.63 287.23 310.98 253.21 312.05 250.98 298.28 217.28"/><path class="b" d="M679.64,236.15h-147.67l-26.43,50.2h-69.78l127.23-235.82h85.64l127.58,235.82h-70.13l-26.43-50.2ZM656.03,191.01l-50.05-95.68-50.4,95.68h100.44Z"/><path class="b" d="M1379.68,102.18l-188.17,134.56h188.17v51.05h-279.42v-51.05l187.81-134.56h-187.81v-51.05h279.42v51.05Z"/><path class="b" d="M831.58,206.32c0,24.57,20.84,35.86,100.04,35.86,65.65,0,85.45-6.97,85.45-25.23,0-19.26-13.89-22.58-92.74-26.23-105.94-4.65-147.97-20.59-147.97-72.71s54.53-67.4,145.54-67.4,147.28,21.91,147.28,79.36h-62.52c0-25.57-26.75-31.88-91.7-31.88-61.48,0-76.07,5.64-76.07,22.91s14.59,21.25,85.45,25.23c95.87,4.98,155.27,9.96,155.27,68.73,0,62.09-61.48,74.71-151.44,74.71-99.69,0-159.09-16.27-159.09-83.34h62.52Z"/></svg>