<?xml version="1.0" encoding="UTF-8"?>
<svg id="Layer_1" data-name="Layer 1" xmlns="http://www.w3.org/2000/svg" viewBox="0 0 694.45 384.31">
  <defs>
    <style>
      .cls-1 {
        fill: #016bf2;
      }

      .cls-2 {
        fill: #51b948;
      }
    </style>
  </defs>
  <g>
    <g>
      <polygon class="cls-1" points="293.99 278.86 292.26 282.47 265.77 337.61 265.54 338.08 257.13 336.7 257.02 336.68 243.76 334.55 192.13 326.18 191.66 325.03 191.66 325.01 187.86 315.73 176.19 287.14 178.44 282.47 174.27 282.47 150.49 224.25 141.79 202.94 141.79 202.93 131.98 178.92 126.72 166.03 113.06 132.63 113.06 132.7 102.93 107.95 84.37 62.59 90.48 49.88 114.07 .91 120.08 1.88 131.35 3.71 131.97 3.8 172 10.28 184.36 12.27 184.93 12.36 187.5 18.68 187.8 19.42 200.15 49.6 200.27 49.88 207.13 66.64 207.22 66.86 223.98 107.81 224.04 107.95 241.55 150.78 241.59 150.86 243.61 155.81 243.65 155.88 243.65 166.03 247.92 166.03 271.69 224.25 293.99 278.86"/>
      <polygon class="cls-1" points="224.4 269.58 177.36 290.04 159.82 246.68 206.86 226.23 224.4 269.58"/>
      <polygon class="cls-1" points="259.77 194.87 212.9 215.73 195.01 172.53 241.89 151.66 259.77 194.87"/>
    </g>
    <g>
      <polygon class="cls-1" points="313.03 325.09 311.29 328.71 284.81 383.84 284.57 384.31 276.16 382.93 276.06 382.92 262.79 380.78 211.17 372.41 210.7 371.26 210.7 371.25 206.9 361.96 195.23 333.38 197.47 328.71 193.31 328.71 169.53 270.49 160.83 249.18 160.83 249.16 151.02 225.16 145.76 212.27 132.1 178.87 132.1 178.93 121.97 154.18 103.41 108.83 109.52 96.11 133.11 47.14 139.11 48.12 150.38 49.94 151.01 50.04 191.03 56.51 203.4 58.5 203.96 58.6 206.54 64.92 206.84 65.65 219.19 95.83 219.31 96.11 226.16 112.87 226.25 113.09 243.02 154.05 243.07 154.18 260.59 197.01 260.62 197.09 262.65 202.05 262.69 202.11 262.69 212.27 266.96 212.27 290.73 270.49 313.03 325.09"/>
      <polygon class="cls-1" points="243.43 315.81 196.39 336.27 178.85 292.92 225.9 272.46 243.43 315.81"/>
      <polygon class="cls-1" points="278.81 241.1 231.93 261.96 214.05 218.76 260.92 197.9 278.81 241.1"/>
    </g>
  </g>
  <g>
    <g>
      <polygon class="cls-1" points="675.42 278.32 673.68 281.93 647.2 337.06 646.96 337.54 638.55 336.16 638.45 336.14 625.18 334 573.56 325.64 573.09 324.49 573.09 324.47 569.29 315.18 557.61 286.6 559.86 281.93 555.69 281.93 531.91 223.71 523.22 202.4 523.22 202.39 513.41 178.38 508.15 165.49 494.49 132.09 494.49 132.16 484.35 107.41 465.8 62.05 471.91 49.34 495.49 .37 501.5 1.34 512.77 3.17 513.4 3.26 553.42 9.74 565.79 11.73 566.35 11.82 568.92 18.14 569.22 18.87 581.58 49.05 581.69 49.34 588.55 66.1 588.64 66.32 605.41 107.27 605.46 107.41 622.97 150.23 623.01 150.32 625.04 155.27 625.08 155.34 625.08 165.49 629.35 165.49 653.11 223.71 675.42 278.32"/>
      <polygon class="cls-1" points="605.82 269.04 558.78 289.5 541.24 246.14 588.28 225.69 605.82 269.04"/>
      <polygon class="cls-1" points="641.2 194.32 594.32 215.19 576.44 171.98 623.31 151.12 641.2 194.32"/>
    </g>
    <g>
      <polygon class="cls-1" points="694.45 324.55 692.72 328.17 666.23 383.3 666 383.77 657.59 382.39 657.49 382.38 644.22 380.24 592.6 371.87 592.13 370.72 592.13 370.71 588.33 361.42 576.65 332.84 578.9 328.17 574.73 328.17 550.95 269.95 542.25 248.64 542.25 248.62 532.45 224.62 527.18 211.73 513.53 178.32 513.53 178.39 503.39 153.64 484.83 108.29 490.95 95.57 514.53 46.6 520.54 47.57 531.81 49.4 532.43 49.5 572.46 55.97 584.83 57.96 585.39 58.05 587.96 64.38 588.26 65.11 600.61 95.29 600.73 95.57 607.59 112.33 607.68 112.55 624.45 153.51 624.5 153.64 642.01 196.47 642.05 196.55 644.07 201.5 644.11 201.57 644.11 211.73 648.38 211.73 672.15 269.95 694.45 324.55"/>
      <polygon class="cls-1" points="624.86 315.27 577.82 335.73 560.28 292.38 607.32 271.92 624.86 315.27"/>
      <polygon class="cls-1" points="660.23 240.56 613.36 261.42 595.47 218.22 642.35 197.36 660.23 240.56"/>
    </g>
  </g>
  <polygon class="cls-2" points="481.5 270.35 469.52 241 469.59 240.97 463.75 226.88 457.73 212.14 457.65 212.14 453.46 202.03 453.46 201.98 453.42 201.91 451.4 196.96 451.36 196.88 450.49 194.76 450.55 194.73 445.4 182.29 439.71 168.38 438.7 165.9 438.7 165.9 433.85 154.05 433.8 153.92 417.03 112.96 416.94 112.74 410.08 95.98 409.96 95.7 397.61 65.52 397.31 64.79 394.74 58.46 394.6 58.44 391.05 49.75 390.93 49.46 378.57 19.28 378.27 18.55 375.7 12.23 375.14 12.13 362.77 10.14 322.75 3.67 322.12 3.58 310.85 1.75 305.17 .83 304.13 0 86.77 272.34 38.58 265.47 0 315.42 24.74 374.4 88.06 383.43 126.64 333.47 108.6 290.47 280.38 75.24 293.7 107.82 303.84 132.57 303.84 132.5 317.5 165.9 322.76 178.79 332.57 202.8 332.57 202.81 341.27 224.12 365.05 282.34 365.07 282.34 368.13 289.91 368.14 289.9 378.64 315.59 382.44 324.88 382.44 324.89 382.91 326.05 383.06 326.07 384.08 328.57 384.11 328.57 387.17 336.14 387.18 336.13 397.68 361.83 401.48 371.11 401.48 371.13 401.95 372.28 453.57 380.65 466.84 382.79 466.94 382.8 475.35 384.18 475.59 383.71 502.07 328.57 503.81 324.96 481.5 270.35"/>
</svg>